# Blender 4.4.3
# www.blender.org
mtllib zugzeittr.mtl
o Plane
v -6.548516 4.242095 14.111312
v 24.651482 4.242095 14.111312
v -6.548516 0.042094 14.111312
v 24.651482 0.042094 14.111312
vn -0.0000 -0.0000 -1.0000
vt 11.225000 -1.150000
vt -10.225000 2.150000
vt -10.225000 -1.150000
vt 11.225000 2.150000
s 0
usemtl Material
f 2/1/1 3/2/1 1/3/1
f 2/1/1 4/4/1 3/2/1
o Plane.002
v 24.651482 4.242095 -14.708686
v -6.548516 4.242095 -14.708691
v 24.651482 0.042094 -14.708685
v -6.548516 0.042094 -14.708690
vn -0.0000 -0.0000 1.0000
vt 11.225000 -1.150000
vt -10.225000 2.150000
vt -10.225000 -1.150000
vt 11.225000 2.150000
s 0
usemtl Material
f 6/5/2 7/6/2 5/7/2
f 6/5/2 8/8/2 7/6/2
